<mxfile host="app.diagrams.net" agent="Mozilla/5.0 (Windows NT 10.0; Win64; x64) AppleWebKit/537.36 (KHTML, like Gecko) Chrome/133.0.0.0 Safari/537.36" version="26.0.14">
  <diagram name="Sida-1" id="O3aQNMsKOw8vMfohSHEY">
    <mxGraphModel dx="1886" dy="1764" grid="1" gridSize="10" guides="1" tooltips="1" connect="1" arrows="1" fold="1" page="1" pageScale="1" pageWidth="827" pageHeight="1169" math="0" shadow="0">
      <root>
        <mxCell id="0" />
        <mxCell id="1" parent="0" />
        <mxCell id="-qv5VdQHlMRKxFQB7tNi-53" style="edgeStyle=orthogonalEdgeStyle;rounded=0;orthogonalLoop=1;jettySize=auto;html=1;exitX=0.75;exitY=1;exitDx=0;exitDy=0;entryX=1;entryY=0.5;entryDx=0;entryDy=0;endArrow=open;endFill=0;" parent="1" source="-qv5VdQHlMRKxFQB7tNi-2" target="-qv5VdQHlMRKxFQB7tNi-22" edge="1">
          <mxGeometry relative="1" as="geometry" />
        </mxCell>
        <mxCell id="NNkbsPLbsyEdoEFeL6_e-37" style="edgeStyle=orthogonalEdgeStyle;rounded=0;orthogonalLoop=1;jettySize=auto;html=1;exitX=0;exitY=1;exitDx=0;exitDy=0;entryX=0.5;entryY=1;entryDx=0;entryDy=0;dashed=1;endArrow=open;endFill=0;" edge="1" parent="1" source="-qv5VdQHlMRKxFQB7tNi-2" target="-qv5VdQHlMRKxFQB7tNi-17">
          <mxGeometry relative="1" as="geometry" />
        </mxCell>
        <mxCell id="NNkbsPLbsyEdoEFeL6_e-38" style="edgeStyle=orthogonalEdgeStyle;rounded=0;orthogonalLoop=1;jettySize=auto;html=1;exitX=0.25;exitY=1;exitDx=0;exitDy=0;entryX=0.75;entryY=1;entryDx=0;entryDy=0;dashed=1;endArrow=open;endFill=0;" edge="1" parent="1" source="-qv5VdQHlMRKxFQB7tNi-2" target="-qv5VdQHlMRKxFQB7tNi-21">
          <mxGeometry relative="1" as="geometry" />
        </mxCell>
        <mxCell id="NNkbsPLbsyEdoEFeL6_e-39" style="edgeStyle=orthogonalEdgeStyle;rounded=0;orthogonalLoop=1;jettySize=auto;html=1;exitX=0.5;exitY=1;exitDx=0;exitDy=0;entryX=0.75;entryY=1;entryDx=0;entryDy=0;dashed=1;endArrow=open;endFill=0;" edge="1" parent="1" source="-qv5VdQHlMRKxFQB7tNi-2" target="-qv5VdQHlMRKxFQB7tNi-16">
          <mxGeometry relative="1" as="geometry">
            <Array as="points">
              <mxPoint x="976" y="360" />
              <mxPoint x="73" y="360" />
            </Array>
          </mxGeometry>
        </mxCell>
        <mxCell id="NNkbsPLbsyEdoEFeL6_e-60" style="edgeStyle=orthogonalEdgeStyle;rounded=0;orthogonalLoop=1;jettySize=auto;html=1;exitX=0.5;exitY=1;exitDx=0;exitDy=0;entryX=1;entryY=1;entryDx=0;entryDy=0;endArrow=open;endFill=0;" edge="1" parent="1" source="-qv5VdQHlMRKxFQB7tNi-2" target="-qv5VdQHlMRKxFQB7tNi-14">
          <mxGeometry relative="1" as="geometry" />
        </mxCell>
        <mxCell id="-qv5VdQHlMRKxFQB7tNi-2" value="VehichleController" style="swimlane;whiteSpace=wrap;html=1;startSize=23;" parent="1" vertex="1">
          <mxGeometry x="960" y="-600" width="172.5" height="150" as="geometry" />
        </mxCell>
        <mxCell id="Wj8mXEGhw6E6jay1LkoU-9" value="&lt;font size=&quot;1&quot;&gt;+ brake()&lt;/font&gt;&lt;div&gt;&lt;font size=&quot;1&quot;&gt;+ gas()&lt;/font&gt;&lt;/div&gt;&lt;div&gt;&lt;font size=&quot;1&quot;&gt;+ turboOn()&lt;/font&gt;&lt;/div&gt;&lt;div&gt;&lt;font size=&quot;1&quot;&gt;+ stopVehichles()&lt;/font&gt;&lt;/div&gt;&lt;div&gt;&lt;font size=&quot;1&quot;&gt;+ startVehiechles()&lt;/font&gt;&lt;/div&gt;" style="text;html=1;align=center;verticalAlign=middle;resizable=0;points=[];autosize=1;strokeColor=none;fillColor=none;" parent="-qv5VdQHlMRKxFQB7tNi-2" vertex="1">
          <mxGeometry x="35" y="30" width="110" height="90" as="geometry" />
        </mxCell>
        <mxCell id="-qv5VdQHlMRKxFQB7tNi-4" value="DrawP&lt;span style=&quot;background-color: transparent; color: light-dark(rgb(0, 0, 0), rgb(255, 255, 255));&quot;&gt;anel&lt;/span&gt;" style="swimlane;whiteSpace=wrap;html=1;startSize=23;" parent="1" vertex="1">
          <mxGeometry x="-205" y="-335" width="205" height="155" as="geometry" />
        </mxCell>
        <mxCell id="Wj8mXEGhw6E6jay1LkoU-16" value="&lt;div&gt;&lt;span style=&quot;background-color: transparent; color: light-dark(rgb(0, 0, 0), rgb(255, 255, 255));&quot;&gt;#worldSize : Point&lt;/span&gt;&lt;/div&gt;&lt;div&gt;&lt;span style=&quot;background-color: transparent; color: light-dark(rgb(0, 0, 0), rgb(255, 255, 255));&quot;&gt;&lt;br&gt;&lt;/span&gt;&lt;/div&gt;&lt;div&gt;&lt;span style=&quot;background-color: transparent; color: light-dark(rgb(0, 0, 0), rgb(255, 255, 255));&quot;&gt;moveit(Int x, Int y, String modell)&lt;/span&gt;&lt;/div&gt;" style="text;html=1;align=center;verticalAlign=middle;resizable=0;points=[];autosize=1;strokeColor=none;fillColor=none;" parent="-qv5VdQHlMRKxFQB7tNi-4" vertex="1">
          <mxGeometry x="7.5" y="25" width="190" height="60" as="geometry" />
        </mxCell>
        <mxCell id="-qv5VdQHlMRKxFQB7tNi-29" style="edgeStyle=orthogonalEdgeStyle;rounded=0;orthogonalLoop=1;jettySize=auto;html=1;exitX=0.75;exitY=0;exitDx=0;exitDy=0;endArrow=block;endFill=0;" parent="1" source="-qv5VdQHlMRKxFQB7tNi-5" edge="1">
          <mxGeometry relative="1" as="geometry">
            <mxPoint x="400" y="20" as="targetPoint" />
          </mxGeometry>
        </mxCell>
        <mxCell id="-qv5VdQHlMRKxFQB7tNi-5" value="Car" style="swimlane;whiteSpace=wrap;html=1;" parent="1" vertex="1">
          <mxGeometry x="130" y="80" width="150" height="80" as="geometry" />
        </mxCell>
        <mxCell id="-qv5VdQHlMRKxFQB7tNi-13" value="Direction&lt;div&gt;&lt;span style=&quot;font-weight: 400; text-wrap-mode: nowrap;&quot;&gt;&amp;lt;&amp;lt;Enum&amp;gt;&amp;gt;&lt;/span&gt;&lt;/div&gt;" style="swimlane;whiteSpace=wrap;html=1;" parent="1" vertex="1">
          <mxGeometry x="210" y="-290" width="160" height="90" as="geometry" />
        </mxCell>
        <mxCell id="rI27XSCHGnwgt4RzRacL-2" value="&lt;font style=&quot;font-size: 10px;&quot;&gt;NORTH&lt;/font&gt;&lt;div&gt;&lt;font style=&quot;font-size: 10px;&quot;&gt;WEST&lt;br&gt;SOUTH&lt;br&gt;EAST&lt;/font&gt;&lt;/div&gt;" style="text;html=1;align=center;verticalAlign=middle;resizable=0;points=[];autosize=1;strokeColor=none;fillColor=none;" parent="-qv5VdQHlMRKxFQB7tNi-13" vertex="1">
          <mxGeometry x="25" y="20" width="60" height="70" as="geometry" />
        </mxCell>
        <mxCell id="-qv5VdQHlMRKxFQB7tNi-36" style="edgeStyle=orthogonalEdgeStyle;rounded=0;orthogonalLoop=1;jettySize=auto;html=1;curved=0;endArrow=open;endFill=0;" parent="1" source="-qv5VdQHlMRKxFQB7tNi-14" edge="1">
          <mxGeometry relative="1" as="geometry">
            <mxPoint x="280" y="-210" as="targetPoint" />
          </mxGeometry>
        </mxCell>
        <mxCell id="-qv5VdQHlMRKxFQB7tNi-43" style="edgeStyle=orthogonalEdgeStyle;rounded=0;orthogonalLoop=1;jettySize=auto;html=1;exitX=0.75;exitY=0;exitDx=0;exitDy=0;entryX=0.5;entryY=1;entryDx=0;entryDy=0;endArrow=block;endFill=0;dashed=1;" parent="1" source="-qv5VdQHlMRKxFQB7tNi-14" target="-qv5VdQHlMRKxFQB7tNi-15" edge="1">
          <mxGeometry relative="1" as="geometry">
            <Array as="points">
              <mxPoint x="460" y="-180" />
              <mxPoint x="460" y="-190" />
              <mxPoint x="520" y="-190" />
              <mxPoint x="520" y="-180" />
              <mxPoint x="535" y="-180" />
            </Array>
          </mxGeometry>
        </mxCell>
        <mxCell id="-qv5VdQHlMRKxFQB7tNi-14" value="&lt;font style=&quot;font-size: 11px;&quot;&gt;MotorVehichle&lt;/font&gt;&lt;div&gt;&lt;font style=&quot;font-size: 11px;&quot;&gt;&lt;i&gt;(abstract)&lt;/i&gt;&lt;/font&gt;&lt;/div&gt;" style="swimlane;whiteSpace=wrap;html=1;" parent="1" vertex="1">
          <mxGeometry x="350" y="-180" width="150" height="195" as="geometry" />
        </mxCell>
        <mxCell id="-qv5VdQHlMRKxFQB7tNi-26" value="&lt;font style=&quot;font-size: 10px;&quot;&gt;GetCoordinates()&lt;/font&gt;&lt;div&gt;&lt;font style=&quot;font-size: 10px;&quot;&gt;StopEngine()&lt;/font&gt;&lt;/div&gt;&lt;div&gt;&lt;font style=&quot;font-size: 10px;&quot;&gt;Start Engine()&lt;/font&gt;&lt;/div&gt;&lt;div&gt;&lt;font style=&quot;font-size: 10px;&quot;&gt;Gas()&lt;/font&gt;&lt;/div&gt;&lt;div&gt;&lt;font style=&quot;font-size: 10px;&quot;&gt;Brake()&lt;/font&gt;&lt;/div&gt;&lt;div&gt;&lt;font style=&quot;font-size: 10px;&quot;&gt;InvertDirection()&lt;/font&gt;&lt;/div&gt;&lt;div&gt;&lt;font style=&quot;font-size: 10px;&quot;&gt;move()&lt;/font&gt;&lt;/div&gt;&lt;div&gt;&lt;font style=&quot;font-size: 10px;&quot;&gt;turnLeft()&lt;/font&gt;&lt;/div&gt;&lt;div&gt;&lt;font style=&quot;font-size: 10px;&quot;&gt;turnRight()&lt;/font&gt;&lt;/div&gt;" style="text;html=1;align=center;verticalAlign=middle;resizable=0;points=[];autosize=1;strokeColor=none;fillColor=none;" parent="-qv5VdQHlMRKxFQB7tNi-14" vertex="1">
          <mxGeometry x="25" y="55" width="100" height="140" as="geometry" />
        </mxCell>
        <mxCell id="Wj8mXEGhw6E6jay1LkoU-3" value="xAndY&lt;div&gt;direction&lt;/div&gt;" style="rounded=0;whiteSpace=wrap;html=1;" parent="-qv5VdQHlMRKxFQB7tNi-14" vertex="1">
          <mxGeometry y="30" width="150" height="30" as="geometry" />
        </mxCell>
        <mxCell id="-qv5VdQHlMRKxFQB7tNi-15" value="Movable&lt;div&gt;&lt;span style=&quot;font-weight: 400; text-wrap-mode: nowrap;&quot;&gt;&amp;lt;&amp;lt;Interface&amp;gt;&amp;gt;&lt;/span&gt;&lt;/div&gt;" style="swimlane;whiteSpace=wrap;html=1;startSize=23;" parent="1" vertex="1">
          <mxGeometry x="460" y="-290" width="150" height="90" as="geometry" />
        </mxCell>
        <mxCell id="rI27XSCHGnwgt4RzRacL-1" value="move()&lt;div&gt;turnLeft()&lt;/div&gt;&lt;div&gt;turnRight()&lt;/div&gt;" style="text;html=1;align=center;verticalAlign=middle;resizable=0;points=[];autosize=1;strokeColor=none;fillColor=none;" parent="-qv5VdQHlMRKxFQB7tNi-15" vertex="1">
          <mxGeometry y="20" width="80" height="60" as="geometry" />
        </mxCell>
        <mxCell id="-qv5VdQHlMRKxFQB7tNi-31" style="edgeStyle=orthogonalEdgeStyle;rounded=0;orthogonalLoop=1;jettySize=auto;html=1;exitX=0.75;exitY=0;exitDx=0;exitDy=0;endArrow=block;endFill=0;" parent="1" source="-qv5VdQHlMRKxFQB7tNi-16" edge="1">
          <mxGeometry relative="1" as="geometry">
            <mxPoint x="160" y="160" as="targetPoint" />
          </mxGeometry>
        </mxCell>
        <mxCell id="-qv5VdQHlMRKxFQB7tNi-16" value="Saab95" style="swimlane;whiteSpace=wrap;html=1;" parent="1" vertex="1">
          <mxGeometry x="-40" y="240" width="150" height="80" as="geometry" />
        </mxCell>
        <mxCell id="Wj8mXEGhw6E6jay1LkoU-4" value="SetTurboOn()&lt;div&gt;SetTurboOff()&lt;/div&gt;" style="text;html=1;align=center;verticalAlign=middle;resizable=0;points=[];autosize=1;strokeColor=none;fillColor=none;" parent="-qv5VdQHlMRKxFQB7tNi-16" vertex="1">
          <mxGeometry x="-10" y="22.5" width="100" height="40" as="geometry" />
        </mxCell>
        <mxCell id="-qv5VdQHlMRKxFQB7tNi-33" style="edgeStyle=orthogonalEdgeStyle;rounded=0;orthogonalLoop=1;jettySize=auto;html=1;exitX=0.75;exitY=0;exitDx=0;exitDy=0;entryX=0.25;entryY=1;entryDx=0;entryDy=0;endArrow=block;endFill=0;" parent="1" source="-qv5VdQHlMRKxFQB7tNi-17" target="-qv5VdQHlMRKxFQB7tNi-19" edge="1">
          <mxGeometry relative="1" as="geometry" />
        </mxCell>
        <mxCell id="-qv5VdQHlMRKxFQB7tNi-17" value="Scania" style="swimlane;whiteSpace=wrap;html=1;startSize=23;" parent="1" vertex="1">
          <mxGeometry x="390" y="235" width="160" height="95" as="geometry" />
        </mxCell>
        <mxCell id="Wj8mXEGhw6E6jay1LkoU-19" value="flatBedRaise()&lt;div&gt;flatBedLower()&lt;/div&gt;" style="text;html=1;align=center;verticalAlign=middle;resizable=0;points=[];autosize=1;strokeColor=none;fillColor=none;" parent="-qv5VdQHlMRKxFQB7tNi-17" vertex="1">
          <mxGeometry y="20" width="100" height="40" as="geometry" />
        </mxCell>
        <mxCell id="-qv5VdQHlMRKxFQB7tNi-30" style="edgeStyle=orthogonalEdgeStyle;rounded=0;orthogonalLoop=1;jettySize=auto;html=1;exitX=0.25;exitY=0;exitDx=0;exitDy=0;endArrow=block;endFill=0;" parent="1" source="-qv5VdQHlMRKxFQB7tNi-19" edge="1">
          <mxGeometry relative="1" as="geometry">
            <mxPoint x="440" y="20" as="targetPoint" />
          </mxGeometry>
        </mxCell>
        <mxCell id="-qv5VdQHlMRKxFQB7tNi-19" value="Truck" style="swimlane;whiteSpace=wrap;html=1;" parent="1" vertex="1">
          <mxGeometry x="560" y="80" width="150" height="80" as="geometry" />
        </mxCell>
        <mxCell id="-qv5VdQHlMRKxFQB7tNi-56" style="edgeStyle=orthogonalEdgeStyle;rounded=0;orthogonalLoop=1;jettySize=auto;html=1;exitX=0;exitY=0.75;exitDx=0;exitDy=0;entryX=0.25;entryY=0;entryDx=0;entryDy=0;dashed=1;endArrow=open;endFill=0;" parent="1" source="-qv5VdQHlMRKxFQB7tNi-20" target="-qv5VdQHlMRKxFQB7tNi-4" edge="1">
          <mxGeometry relative="1" as="geometry" />
        </mxCell>
        <mxCell id="-qv5VdQHlMRKxFQB7tNi-20" value="VehichleView" style="swimlane;whiteSpace=wrap;html=1;" parent="1" vertex="1">
          <mxGeometry x="215" y="-595" width="150" height="235" as="geometry" />
        </mxCell>
        <mxCell id="Wj8mXEGhw6E6jay1LkoU-14" value="&lt;font style=&quot;font-size: 10px;&quot;&gt;#vehichleController : vehichleController&lt;/font&gt;&lt;div&gt;&lt;font style=&quot;font-size: 10px;&quot;&gt;#drawPanel : DrawPanel&amp;nbsp;&lt;/font&gt;&lt;/div&gt;&lt;div&gt;&lt;font style=&quot;font-size: 10px;&quot;&gt;#x : int&lt;/font&gt;&lt;/div&gt;&lt;div&gt;&lt;font style=&quot;font-size: 10px;&quot;&gt;#y: int&lt;/font&gt;&lt;/div&gt;" style="rounded=0;whiteSpace=wrap;html=1;" parent="-qv5VdQHlMRKxFQB7tNi-20" vertex="1">
          <mxGeometry y="20" width="150" height="90" as="geometry" />
        </mxCell>
        <mxCell id="NNkbsPLbsyEdoEFeL6_e-6" value="" style="rounded=0;whiteSpace=wrap;html=1;" vertex="1" parent="-qv5VdQHlMRKxFQB7tNi-20">
          <mxGeometry y="110" width="150" height="80" as="geometry" />
        </mxCell>
        <mxCell id="-qv5VdQHlMRKxFQB7tNi-32" style="edgeStyle=orthogonalEdgeStyle;rounded=0;orthogonalLoop=1;jettySize=auto;html=1;exitX=0.25;exitY=0;exitDx=0;exitDy=0;entryX=0.75;entryY=1;entryDx=0;entryDy=0;endArrow=block;endFill=0;" parent="1" source="-qv5VdQHlMRKxFQB7tNi-21" target="-qv5VdQHlMRKxFQB7tNi-5" edge="1">
          <mxGeometry relative="1" as="geometry" />
        </mxCell>
        <mxCell id="-qv5VdQHlMRKxFQB7tNi-21" value="Volvo240" style="swimlane;whiteSpace=wrap;html=1;" parent="1" vertex="1">
          <mxGeometry x="230" y="235" width="150" height="95" as="geometry" />
        </mxCell>
        <mxCell id="Wj8mXEGhw6E6jay1LkoU-18" value="speedFactor()" style="text;html=1;align=center;verticalAlign=middle;resizable=0;points=[];autosize=1;strokeColor=none;fillColor=none;" parent="-qv5VdQHlMRKxFQB7tNi-21" vertex="1">
          <mxGeometry x="10" y="32.5" width="100" height="30" as="geometry" />
        </mxCell>
        <mxCell id="-qv5VdQHlMRKxFQB7tNi-37" style="edgeStyle=orthogonalEdgeStyle;rounded=0;orthogonalLoop=1;jettySize=auto;html=1;exitX=0;exitY=0.5;exitDx=0;exitDy=0;entryX=1;entryY=0.5;entryDx=0;entryDy=0;endArrow=open;endFill=0;dashed=1;" parent="1" source="-qv5VdQHlMRKxFQB7tNi-22" target="-qv5VdQHlMRKxFQB7tNi-14" edge="1">
          <mxGeometry relative="1" as="geometry" />
        </mxCell>
        <mxCell id="-qv5VdQHlMRKxFQB7tNi-22" value="Workshop" style="swimlane;whiteSpace=wrap;html=1;" parent="1" vertex="1">
          <mxGeometry x="677" y="-150" width="150" height="150" as="geometry" />
        </mxCell>
        <mxCell id="Wj8mXEGhw6E6jay1LkoU-10" value="VehichleEntry()&lt;div&gt;GetCoordinates()&lt;/div&gt;" style="text;html=1;align=center;verticalAlign=middle;resizable=0;points=[];autosize=1;strokeColor=none;fillColor=none;" parent="-qv5VdQHlMRKxFQB7tNi-22" vertex="1">
          <mxGeometry y="75" width="120" height="40" as="geometry" />
        </mxCell>
        <mxCell id="Wj8mXEGhw6E6jay1LkoU-11" value="&lt;font style=&quot;font-size: 10px;&quot;&gt;#vehichlesInRepair : List&amp;lt;T extends MotorVehichle&amp;gt;&lt;/font&gt;&lt;div&gt;&lt;font style=&quot;font-size: 10px;&quot;&gt;#xAndY : Point2D.Double&lt;/font&gt;&lt;/div&gt;" style="rounded=0;whiteSpace=wrap;html=1;" parent="-qv5VdQHlMRKxFQB7tNi-22" vertex="1">
          <mxGeometry y="20" width="150" height="40" as="geometry" />
        </mxCell>
        <mxCell id="-qv5VdQHlMRKxFQB7tNi-34" style="edgeStyle=orthogonalEdgeStyle;rounded=0;orthogonalLoop=1;jettySize=auto;html=1;exitX=0.25;exitY=0;exitDx=0;exitDy=0;endArrow=block;endFill=0;" parent="1" source="-qv5VdQHlMRKxFQB7tNi-24" edge="1">
          <mxGeometry relative="1" as="geometry">
            <mxPoint x="680" y="160" as="targetPoint" />
          </mxGeometry>
        </mxCell>
        <mxCell id="Wj8mXEGhw6E6jay1LkoU-20" style="edgeStyle=orthogonalEdgeStyle;rounded=0;orthogonalLoop=1;jettySize=auto;html=1;exitX=0.75;exitY=0;exitDx=0;exitDy=0;entryX=1;entryY=0.5;entryDx=0;entryDy=0;endArrow=open;endFill=0;" parent="1" source="-qv5VdQHlMRKxFQB7tNi-24" target="-qv5VdQHlMRKxFQB7tNi-5" edge="1">
          <mxGeometry relative="1" as="geometry">
            <Array as="points">
              <mxPoint x="850" y="235" />
              <mxPoint x="850" y="190" />
              <mxPoint x="280" y="190" />
            </Array>
          </mxGeometry>
        </mxCell>
        <mxCell id="-qv5VdQHlMRKxFQB7tNi-24" value="CarTransporter" style="swimlane;whiteSpace=wrap;html=1;startSize=23;" parent="1" vertex="1">
          <mxGeometry x="720" y="235" width="150" height="80" as="geometry" />
        </mxCell>
        <mxCell id="NNkbsPLbsyEdoEFeL6_e-1" value="&lt;font style=&quot;font-size: 10px;&quot;&gt;ControllerInterface&lt;/font&gt;&lt;div&gt;&lt;font style=&quot;font-size: 10px;&quot;&gt;&amp;lt;&amp;lt;Interface&amp;gt;&amp;gt;&lt;/font&gt;&lt;/div&gt;" style="swimlane;whiteSpace=wrap;html=1;" vertex="1" parent="1">
          <mxGeometry x="670" y="-830" width="180" height="140" as="geometry" />
        </mxCell>
        <mxCell id="NNkbsPLbsyEdoEFeL6_e-2" value="&lt;font style=&quot;font-size: 10px;&quot;&gt;+ gas()&lt;/font&gt;&lt;div&gt;&lt;font style=&quot;font-size: 10px;&quot;&gt;+ brake()&lt;/font&gt;&lt;/div&gt;&lt;div&gt;&lt;font style=&quot;font-size: 10px;&quot;&gt;+ turboOn()&lt;/font&gt;&lt;/div&gt;&lt;div&gt;&lt;font style=&quot;font-size: 10px;&quot;&gt;+ stopVehichles()&lt;/font&gt;&lt;/div&gt;&lt;div&gt;&lt;font style=&quot;font-size: 10px;&quot;&gt;+ startVehichles()&lt;/font&gt;&lt;/div&gt;" style="rounded=0;whiteSpace=wrap;html=1;" vertex="1" parent="NNkbsPLbsyEdoEFeL6_e-1">
          <mxGeometry y="25" width="180" height="90" as="geometry" />
        </mxCell>
        <mxCell id="NNkbsPLbsyEdoEFeL6_e-4" style="edgeStyle=orthogonalEdgeStyle;rounded=0;orthogonalLoop=1;jettySize=auto;html=1;exitX=0;exitY=0.25;exitDx=0;exitDy=0;entryX=1;entryY=0.611;entryDx=0;entryDy=0;entryPerimeter=0;dashed=1;endArrow=block;endFill=0;" edge="1" parent="1" source="-qv5VdQHlMRKxFQB7tNi-2" target="NNkbsPLbsyEdoEFeL6_e-2">
          <mxGeometry relative="1" as="geometry" />
        </mxCell>
        <mxCell id="NNkbsPLbsyEdoEFeL6_e-21" style="edgeStyle=orthogonalEdgeStyle;rounded=0;orthogonalLoop=1;jettySize=auto;html=1;exitX=0.5;exitY=0;exitDx=0;exitDy=0;entryX=0.5;entryY=1;entryDx=0;entryDy=0;endArrow=block;endFill=0;" edge="1" parent="1" source="NNkbsPLbsyEdoEFeL6_e-13" target="NNkbsPLbsyEdoEFeL6_e-18">
          <mxGeometry relative="1" as="geometry" />
        </mxCell>
        <mxCell id="NNkbsPLbsyEdoEFeL6_e-13" value="ActionListner" style="swimlane;whiteSpace=wrap;html=1;" vertex="1" parent="1">
          <mxGeometry x="390" y="-850" width="230" height="160" as="geometry" />
        </mxCell>
        <mxCell id="NNkbsPLbsyEdoEFeL6_e-15" value="" style="rounded=0;whiteSpace=wrap;html=1;" vertex="1" parent="NNkbsPLbsyEdoEFeL6_e-13">
          <mxGeometry y="60" width="230" height="100" as="geometry" />
        </mxCell>
        <mxCell id="NNkbsPLbsyEdoEFeL6_e-16" value="" style="rounded=0;whiteSpace=wrap;html=1;" vertex="1" parent="NNkbsPLbsyEdoEFeL6_e-13">
          <mxGeometry y="20" width="230" height="40" as="geometry" />
        </mxCell>
        <mxCell id="NNkbsPLbsyEdoEFeL6_e-17" style="edgeStyle=orthogonalEdgeStyle;rounded=0;orthogonalLoop=1;jettySize=auto;html=1;exitX=1;exitY=0.5;exitDx=0;exitDy=0;entryX=1;entryY=0.25;entryDx=0;entryDy=0;" edge="1" parent="NNkbsPLbsyEdoEFeL6_e-13" source="NNkbsPLbsyEdoEFeL6_e-16" target="NNkbsPLbsyEdoEFeL6_e-13">
          <mxGeometry relative="1" as="geometry" />
        </mxCell>
        <mxCell id="NNkbsPLbsyEdoEFeL6_e-18" value="ControllPanel" style="swimlane;whiteSpace=wrap;html=1;" vertex="1" parent="1">
          <mxGeometry x="184" y="-1110" width="230" height="160" as="geometry" />
        </mxCell>
        <mxCell id="NNkbsPLbsyEdoEFeL6_e-23" style="edgeStyle=orthogonalEdgeStyle;rounded=0;orthogonalLoop=1;jettySize=auto;html=1;exitX=1;exitY=0.5;exitDx=0;exitDy=0;entryX=-0.005;entryY=0.389;entryDx=0;entryDy=0;entryPerimeter=0;dashed=1;endArrow=open;endFill=0;" edge="1" parent="1" source="NNkbsPLbsyEdoEFeL6_e-13" target="NNkbsPLbsyEdoEFeL6_e-2">
          <mxGeometry relative="1" as="geometry" />
        </mxCell>
        <mxCell id="NNkbsPLbsyEdoEFeL6_e-24" style="edgeStyle=orthogonalEdgeStyle;rounded=0;orthogonalLoop=1;jettySize=auto;html=1;exitX=0.5;exitY=0;exitDx=0;exitDy=0;entryX=0.463;entryY=1.012;entryDx=0;entryDy=0;entryPerimeter=0;" edge="1" parent="1" source="-qv5VdQHlMRKxFQB7tNi-20" target="NNkbsPLbsyEdoEFeL6_e-15">
          <mxGeometry relative="1" as="geometry" />
        </mxCell>
        <mxCell id="NNkbsPLbsyEdoEFeL6_e-26" value="App" style="swimlane;whiteSpace=wrap;html=1;" vertex="1" parent="1">
          <mxGeometry x="550" y="-595" width="190" height="180" as="geometry" />
        </mxCell>
        <mxCell id="NNkbsPLbsyEdoEFeL6_e-28" value="&lt;div style=&quot;text-align: left;&quot;&gt;listner {&lt;/div&gt;&lt;div style=&quot;text-align: left;&quot;&gt;&lt;span style=&quot;white-space: pre;&quot;&gt;&#x9;&lt;/span&gt;vc.getInput()&lt;br&gt;&lt;/div&gt;&lt;div style=&quot;text-align: left;&quot;&gt;&lt;span style=&quot;white-space: pre;&quot;&gt;&#x9;&lt;/span&gt;model.upade()&lt;br&gt;&lt;/div&gt;&lt;div style=&quot;text-align: left;&quot;&gt;&lt;span style=&quot;white-space: pre;&quot;&gt;&#x9;&lt;/span&gt;view.update()&lt;br&gt;&lt;/div&gt;&lt;div style=&quot;text-align: left;&quot;&gt;}&lt;/div&gt;" style="rounded=0;whiteSpace=wrap;html=1;" vertex="1" parent="NNkbsPLbsyEdoEFeL6_e-26">
          <mxGeometry y="95" width="190" height="85" as="geometry" />
        </mxCell>
        <mxCell id="NNkbsPLbsyEdoEFeL6_e-29" style="edgeStyle=orthogonalEdgeStyle;rounded=0;orthogonalLoop=1;jettySize=auto;html=1;exitX=0;exitY=0.25;exitDx=0;exitDy=0;entryX=1;entryY=0.25;entryDx=0;entryDy=0;endArrow=open;endFill=0;" edge="1" parent="1" source="NNkbsPLbsyEdoEFeL6_e-27" target="Wj8mXEGhw6E6jay1LkoU-14">
          <mxGeometry relative="1" as="geometry" />
        </mxCell>
        <mxCell id="NNkbsPLbsyEdoEFeL6_e-33" style="edgeStyle=orthogonalEdgeStyle;rounded=0;orthogonalLoop=1;jettySize=auto;html=1;exitX=1;exitY=1;exitDx=0;exitDy=0;entryX=0;entryY=0.75;entryDx=0;entryDy=0;endArrow=open;endFill=0;" edge="1" parent="1" source="NNkbsPLbsyEdoEFeL6_e-27" target="-qv5VdQHlMRKxFQB7tNi-2">
          <mxGeometry relative="1" as="geometry" />
        </mxCell>
        <mxCell id="NNkbsPLbsyEdoEFeL6_e-27" value="#timer: Timer&lt;div&gt;# vc: VehichlController&lt;/div&gt;&lt;div&gt;# model: Model&lt;/div&gt;&lt;div&gt;# view: VehichleView&lt;/div&gt;" style="rounded=0;whiteSpace=wrap;html=1;" vertex="1" parent="1">
          <mxGeometry x="550" y="-570" width="190" height="70" as="geometry" />
        </mxCell>
        <mxCell id="NNkbsPLbsyEdoEFeL6_e-41" value="Model" style="swimlane;fontStyle=1;align=center;verticalAlign=middle;childLayout=stackLayout;horizontal=1;startSize=29;horizontalStack=0;resizeParent=1;resizeParentMax=0;resizeLast=0;collapsible=0;marginBottom=0;html=1;whiteSpace=wrap;" vertex="1" parent="1">
          <mxGeometry x="1101" y="-815" width="140" height="130" as="geometry" />
        </mxCell>
        <mxCell id="NNkbsPLbsyEdoEFeL6_e-42" value="&amp;lt;&amp;lt;stereotype1&amp;gt;&amp;gt;" style="text;html=1;strokeColor=none;fillColor=none;align=center;verticalAlign=middle;spacingLeft=4;spacingRight=4;overflow=hidden;rotatable=0;points=[[0,0.5],[1,0.5]];portConstraint=eastwest;whiteSpace=wrap;" vertex="1" parent="NNkbsPLbsyEdoEFeL6_e-41">
          <mxGeometry y="29" width="140" height="25" as="geometry" />
        </mxCell>
        <mxCell id="NNkbsPLbsyEdoEFeL6_e-43" value="Workshops&lt;div&gt;Cars&lt;/div&gt;&lt;div&gt;WorldSize&lt;/div&gt;&lt;div&gt;update(gas, brake...)&lt;/div&gt;" style="text;html=1;strokeColor=none;fillColor=none;align=left;verticalAlign=middle;spacingLeft=4;spacingRight=4;overflow=hidden;rotatable=0;points=[[0,0.5],[1,0.5]];portConstraint=eastwest;whiteSpace=wrap;" vertex="1" parent="NNkbsPLbsyEdoEFeL6_e-41">
          <mxGeometry y="54" width="140" height="76" as="geometry" />
        </mxCell>
        <mxCell id="NNkbsPLbsyEdoEFeL6_e-57" style="edgeStyle=orthogonalEdgeStyle;rounded=0;orthogonalLoop=1;jettySize=auto;html=1;" edge="1" parent="1" source="NNkbsPLbsyEdoEFeL6_e-44" target="NNkbsPLbsyEdoEFeL6_e-41">
          <mxGeometry relative="1" as="geometry">
            <Array as="points">
              <mxPoint x="1371" y="-740" />
              <mxPoint x="1371" y="-720" />
            </Array>
          </mxGeometry>
        </mxCell>
        <mxCell id="NNkbsPLbsyEdoEFeL6_e-44" value="VehicleController" style="swimlane;fontStyle=1;align=center;verticalAlign=middle;childLayout=stackLayout;horizontal=1;startSize=29;horizontalStack=0;resizeParent=1;resizeParentMax=0;resizeLast=0;collapsible=0;marginBottom=0;html=1;whiteSpace=wrap;" vertex="1" parent="1">
          <mxGeometry x="1500" y="-815" width="140" height="110" as="geometry" />
        </mxCell>
        <mxCell id="NNkbsPLbsyEdoEFeL6_e-45" value="&amp;lt;&amp;lt;stereotype1&amp;gt;&amp;gt;" style="text;html=1;strokeColor=none;fillColor=none;align=center;verticalAlign=middle;spacingLeft=4;spacingRight=4;overflow=hidden;rotatable=0;points=[[0,0.5],[1,0.5]];portConstraint=eastwest;whiteSpace=wrap;" vertex="1" parent="NNkbsPLbsyEdoEFeL6_e-44">
          <mxGeometry y="29" width="140" height="25" as="geometry" />
        </mxCell>
        <mxCell id="NNkbsPLbsyEdoEFeL6_e-46" value="gas&lt;div&gt;brake&lt;/div&gt;&lt;div&gt;...&lt;/div&gt;" style="text;html=1;strokeColor=none;fillColor=none;align=left;verticalAlign=middle;spacingLeft=4;spacingRight=4;overflow=hidden;rotatable=0;points=[[0,0.5],[1,0.5]];portConstraint=eastwest;whiteSpace=wrap;" vertex="1" parent="NNkbsPLbsyEdoEFeL6_e-44">
          <mxGeometry y="54" width="140" height="56" as="geometry" />
        </mxCell>
        <mxCell id="NNkbsPLbsyEdoEFeL6_e-56" style="edgeStyle=orthogonalEdgeStyle;rounded=0;orthogonalLoop=1;jettySize=auto;html=1;" edge="1" parent="1" source="NNkbsPLbsyEdoEFeL6_e-47" target="NNkbsPLbsyEdoEFeL6_e-44">
          <mxGeometry relative="1" as="geometry" />
        </mxCell>
        <mxCell id="NNkbsPLbsyEdoEFeL6_e-47" value="View" style="swimlane;fontStyle=1;align=center;verticalAlign=middle;childLayout=stackLayout;horizontal=1;startSize=29;horizontalStack=0;resizeParent=1;resizeParentMax=0;resizeLast=0;collapsible=0;marginBottom=0;html=1;whiteSpace=wrap;" vertex="1" parent="1">
          <mxGeometry x="1290" y="-1100" width="140" height="120" as="geometry" />
        </mxCell>
        <mxCell id="NNkbsPLbsyEdoEFeL6_e-48" value="&amp;lt;&amp;lt;stereotype1&amp;gt;&amp;gt;" style="text;html=1;strokeColor=none;fillColor=none;align=center;verticalAlign=middle;spacingLeft=4;spacingRight=4;overflow=hidden;rotatable=0;points=[[0,0.5],[1,0.5]];portConstraint=eastwest;whiteSpace=wrap;" vertex="1" parent="NNkbsPLbsyEdoEFeL6_e-47">
          <mxGeometry y="29" width="140" height="25" as="geometry" />
        </mxCell>
        <mxCell id="NNkbsPLbsyEdoEFeL6_e-49" value="update(list(pos, str))" style="text;html=1;strokeColor=none;fillColor=none;align=left;verticalAlign=middle;spacingLeft=4;spacingRight=4;overflow=hidden;rotatable=0;points=[[0,0.5],[1,0.5]];portConstraint=eastwest;whiteSpace=wrap;" vertex="1" parent="NNkbsPLbsyEdoEFeL6_e-47">
          <mxGeometry y="54" width="140" height="66" as="geometry" />
        </mxCell>
        <mxCell id="NNkbsPLbsyEdoEFeL6_e-53" style="edgeStyle=orthogonalEdgeStyle;rounded=0;orthogonalLoop=1;jettySize=auto;html=1;" edge="1" parent="1" source="NNkbsPLbsyEdoEFeL6_e-50" target="NNkbsPLbsyEdoEFeL6_e-49">
          <mxGeometry relative="1" as="geometry" />
        </mxCell>
        <mxCell id="NNkbsPLbsyEdoEFeL6_e-54" style="edgeStyle=orthogonalEdgeStyle;rounded=0;orthogonalLoop=1;jettySize=auto;html=1;" edge="1" parent="1" source="NNkbsPLbsyEdoEFeL6_e-50" target="NNkbsPLbsyEdoEFeL6_e-41">
          <mxGeometry relative="1" as="geometry" />
        </mxCell>
        <mxCell id="NNkbsPLbsyEdoEFeL6_e-55" style="edgeStyle=orthogonalEdgeStyle;rounded=0;orthogonalLoop=1;jettySize=auto;html=1;" edge="1" parent="1" source="NNkbsPLbsyEdoEFeL6_e-50" target="NNkbsPLbsyEdoEFeL6_e-44">
          <mxGeometry relative="1" as="geometry" />
        </mxCell>
        <mxCell id="NNkbsPLbsyEdoEFeL6_e-50" value="App" style="swimlane;fontStyle=1;align=center;verticalAlign=middle;childLayout=stackLayout;horizontal=1;startSize=29;horizontalStack=0;resizeParent=1;resizeParentMax=0;resizeLast=0;collapsible=0;marginBottom=0;html=1;whiteSpace=wrap;" vertex="1" parent="1">
          <mxGeometry x="1300" y="-920" width="140" height="140" as="geometry" />
        </mxCell>
        <mxCell id="NNkbsPLbsyEdoEFeL6_e-51" value="&amp;lt;&amp;lt;stereotype1&amp;gt;&amp;gt;" style="text;html=1;strokeColor=none;fillColor=none;align=center;verticalAlign=middle;spacingLeft=4;spacingRight=4;overflow=hidden;rotatable=0;points=[[0,0.5],[1,0.5]];portConstraint=eastwest;whiteSpace=wrap;" vertex="1" parent="NNkbsPLbsyEdoEFeL6_e-50">
          <mxGeometry y="29" width="140" height="25" as="geometry" />
        </mxCell>
        <mxCell id="NNkbsPLbsyEdoEFeL6_e-52" value="timer = new Timer&lt;div&gt;listner {&lt;/div&gt;&lt;div&gt;&lt;span style=&quot;white-space: pre;&quot;&gt;&#x9;&lt;/span&gt;vc.getInput()&lt;br&gt;&lt;/div&gt;&lt;div&gt;&lt;span style=&quot;white-space: pre;&quot;&gt;&#x9;&lt;/span&gt;model.upade()&lt;br&gt;&lt;/div&gt;&lt;div&gt;&lt;span style=&quot;white-space: pre;&quot;&gt;&#x9;&lt;/span&gt;view.update()&lt;br&gt;&lt;/div&gt;&lt;div&gt;}&lt;/div&gt;" style="text;html=1;strokeColor=none;fillColor=none;align=left;verticalAlign=middle;spacingLeft=4;spacingRight=4;overflow=hidden;rotatable=0;points=[[0,0.5],[1,0.5]];portConstraint=eastwest;whiteSpace=wrap;" vertex="1" parent="NNkbsPLbsyEdoEFeL6_e-50">
          <mxGeometry y="54" width="140" height="86" as="geometry" />
        </mxCell>
        <mxCell id="NNkbsPLbsyEdoEFeL6_e-61" value="Model" style="swimlane;fontStyle=1;align=center;verticalAlign=middle;childLayout=stackLayout;horizontal=1;startSize=29;horizontalStack=0;resizeParent=1;resizeParentMax=0;resizeLast=0;collapsible=0;marginBottom=0;html=1;whiteSpace=wrap;" vertex="1" parent="1">
          <mxGeometry x="740" y="-370" width="170" height="105" as="geometry" />
        </mxCell>
        <mxCell id="NNkbsPLbsyEdoEFeL6_e-63" value="Workshops&lt;div&gt;Cars&lt;/div&gt;&lt;div&gt;WorldSize&lt;/div&gt;&lt;div&gt;update(gas, brake...)&lt;/div&gt;" style="text;html=1;strokeColor=none;fillColor=none;align=left;verticalAlign=middle;spacingLeft=4;spacingRight=4;overflow=hidden;rotatable=0;points=[[0,0.5],[1,0.5]];portConstraint=eastwest;whiteSpace=wrap;" vertex="1" parent="NNkbsPLbsyEdoEFeL6_e-61">
          <mxGeometry y="29" width="170" height="76" as="geometry" />
        </mxCell>
        <mxCell id="NNkbsPLbsyEdoEFeL6_e-68" style="edgeStyle=orthogonalEdgeStyle;rounded=0;orthogonalLoop=1;jettySize=auto;html=1;exitX=0.75;exitY=1;exitDx=0;exitDy=0;entryX=0.417;entryY=-0.009;entryDx=0;entryDy=0;entryPerimeter=0;endArrow=open;endFill=0;" edge="1" parent="1" source="NNkbsPLbsyEdoEFeL6_e-26" target="NNkbsPLbsyEdoEFeL6_e-61">
          <mxGeometry relative="1" as="geometry" />
        </mxCell>
      </root>
    </mxGraphModel>
  </diagram>
</mxfile>
